<?xml version="1.0" encoding="UTF-8"?>
<!DOCTYPE svg PUBLIC "-//W3C//DTD SVG 1.1//EN" "http://www.w3.org/Graphics/SVG/1.1/DTD/svg11.dtd">
<svg xmlns="http://www.w3.org/2000/svg" version="1.1" width="500px" height="500px" style="shape-rendering:geometricPrecision; text-rendering:geometricPrecision; image-rendering:optimizeQuality; fill-rule:evenodd; clip-rule:evenodd" xmlns:xlink="http://www.w3.org/1999/xlink">
<g><path style="opacity:1" fill="#fefefe" d="M -0.5,-0.5 C 166.167,-0.5 332.833,-0.5 499.5,-0.5C 499.5,166.167 499.5,332.833 499.5,499.5C 332.833,499.5 166.167,499.5 -0.5,499.5C -0.5,332.833 -0.5,166.167 -0.5,-0.5 Z"/></g>
<g><path style="opacity:1" fill="#1e1e1e" d="M 258.5,185.5 C 257.566,184.432 257.232,183.099 257.5,181.5C 256.209,181.263 255.209,181.596 254.5,182.5C 253.883,182.389 253.383,182.056 253,181.5C 252.578,178.764 252.578,176.098 253,173.5C 252.047,175.373 250.88,175.706 249.5,174.5C 250.075,170.845 249.075,167.845 246.5,165.5C 246.775,163.158 247.608,163.158 249,165.5C 249.167,164.333 249.333,163.167 249.5,162C 249.345,156.25 249.178,150.417 249,144.5C 246.861,146.806 245.361,149.473 244.5,152.5C 245.701,155.734 247.035,158.901 248.5,162C 247.423,162.47 246.423,162.303 245.5,161.5C 245.167,160.833 244.833,160.167 244.5,159.5C 244.193,156.72 243.193,154.22 241.5,152C 244.074,148.859 246.407,145.525 248.5,142C 249.167,141.333 249.833,141.333 250.5,142C 252.667,144.833 254.833,147.667 257,150.5C 257.667,151.833 257.667,153.167 257,154.5C 253.35,157.893 254.016,160.227 259,161.5C 260.401,163.146 260.568,164.813 259.5,166.5C 257.802,165.319 256.135,165.319 254.5,166.5C 258.036,168.164 259.536,170.831 259,174.5C 257.667,173.167 256.333,173.167 255,174.5C 254.505,176.473 254.338,178.473 254.5,180.5C 255.833,180.5 257.167,180.5 258.5,180.5C 258.5,182.167 258.5,183.833 258.5,185.5 Z"/></g>
<g><path style="opacity:1" fill="#bababa" d="M 250.5,145.5 C 255.202,149.211 255.702,153.544 252,158.5C 251.581,156.32 251.748,154.154 252.5,152C 251.967,149.774 251.3,147.607 250.5,145.5 Z"/></g>
<g><path style="opacity:1" fill="#cccccc" d="M 246.5,165.5 C 244.411,165.143 242.411,164.477 240.5,163.5C 241.668,161.783 243.335,161.116 245.5,161.5C 246.423,162.303 247.423,162.47 248.5,162C 247.035,158.901 245.701,155.734 244.5,152.5C 245.361,149.473 246.861,146.806 249,144.5C 249.178,150.417 249.345,156.25 249.5,162C 249.333,163.167 249.167,164.333 249,165.5C 247.608,163.158 246.775,163.158 246.5,165.5 Z"/></g>
<g><path style="opacity:1" fill="#bdbdbd" d="M 252.5,161.5 C 254.429,161.231 256.095,161.731 257.5,163C 255.121,163.614 252.788,163.947 250.5,164C 251.381,163.292 252.047,162.458 252.5,161.5 Z"/></g>
<g><path style="opacity:1" fill="#292929" d="M 244.5,159.5 C 244.833,160.167 245.167,160.833 245.5,161.5C 243.335,161.116 241.668,161.783 240.5,163.5C 242.411,164.477 244.411,165.143 246.5,165.5C 246.539,166.583 246.873,167.583 247.5,168.5C 245.518,169.216 243.851,170.383 242.5,172C 247.71,173.211 249.544,176.377 248,181.5C 245.236,182.025 244.402,183.358 245.5,185.5C 244.596,186.209 244.263,187.209 244.5,188.5C 245.5,188.5 246.5,188.5 247.5,188.5C 247.5,188.833 247.5,189.167 247.5,189.5C 247.158,190.338 246.492,190.672 245.5,190.5C 245.44,189.957 245.107,189.624 244.5,189.5C 234.096,198.231 224.596,197.231 216,186.5C 216.916,192.558 218.416,198.558 220.5,204.5C 224.533,203.318 226.867,200.651 227.5,196.5C 228.549,199.08 229.216,201.746 229.5,204.5C 230.697,210.809 231.697,217.142 232.5,223.5C 232.043,224.298 231.376,224.631 230.5,224.5C 229.811,217.056 228.478,209.723 226.5,202.5C 224.814,203.857 223.148,205.19 221.5,206.5C 220.791,205.596 219.791,205.263 218.5,205.5C 217.435,199.229 215.768,193.229 213.5,187.5C 213.937,185.926 214.937,184.759 216.5,184C 213.797,183.395 211.797,184.228 210.5,186.5C 209.532,184.393 209.198,182.059 209.5,179.5C 207.833,179.5 206.167,179.5 204.5,179.5C 204.022,176.722 205.022,174.722 207.5,173.5C 205.266,171.619 203.933,169.285 203.5,166.5C 204.315,167.429 205.148,168.429 206,169.5C 206.634,166.445 206.468,163.445 205.5,160.5C 205.312,158.897 205.812,157.563 207,156.5C 209.703,159.538 212.703,162.205 216,164.5C 216.429,166.669 215.929,168.669 214.5,170.5C 216.287,171.316 217.954,172.316 219.5,173.5C 216.494,174.52 215.327,176.52 216,179.5C 217.867,181.808 218.867,184.475 219,187.5C 226.823,194.902 234.823,195.235 243,188.5C 243.498,186.473 243.331,184.473 242.5,182.5C 242.833,180.167 243.833,179.833 245.5,181.5C 247.375,176.703 245.709,174.369 240.5,174.5C 240.799,171.358 242.466,169.191 245.5,168C 243.406,166.648 241.073,166.148 238.5,166.5C 238.427,162.28 240.427,159.946 244.5,159.5 Z"/></g>
<g><path style="opacity:1" fill="#dcdcdc" d="M 207.5,159.5 C 213.783,163.112 215.117,168.112 211.5,174.5C 210.565,169.367 209.232,164.367 207.5,159.5 Z"/></g>
<g><path style="opacity:1" fill="#7e7e7e" d="M 205.5,160.5 C 206.468,163.445 206.634,166.445 206,169.5C 205.148,168.429 204.315,167.429 203.5,166.5C 203.595,164.214 204.262,162.214 205.5,160.5 Z"/></g>
<g><path style="opacity:1" fill="#e0e0e0" d="M 246.5,165.5 C 249.075,167.845 250.075,170.845 249.5,174.5C 249.993,176.806 250.326,179.139 250.5,181.5C 250.033,184.297 248.367,185.631 245.5,185.5C 244.402,183.358 245.236,182.025 248,181.5C 249.544,176.377 247.71,173.211 242.5,172C 243.851,170.383 245.518,169.216 247.5,168.5C 246.873,167.583 246.539,166.583 246.5,165.5 Z"/></g>
<g><path style="opacity:1" fill="#b7b7b7" d="M 252.5,168.5 C 254.103,168.312 255.437,168.812 256.5,170C 254.471,170.681 252.471,171.014 250.5,171C 251.381,170.292 252.047,169.458 252.5,168.5 Z"/></g>
<g><path style="opacity:1" fill="#c0c0c0" d="M 214.5,172.5 C 215.239,172.369 215.906,172.536 216.5,173C 215.072,174.916 214.072,177.083 213.5,179.5C 212.368,177.01 212.701,174.676 214.5,172.5 Z"/></g>
<g><path style="opacity:1" fill="#b3b3b3" d="M 290.5,177.5 C 290.5,176.167 290.5,174.833 290.5,173.5C 291.645,172.207 291.311,171.041 289.5,170C 292.118,169.479 293.451,170.646 293.5,173.5C 292.18,173.968 291.18,175.301 290.5,177.5 Z"/></g>
<g><path style="opacity:1" fill="#bbbbbb" d="M 206.5,175.5 C 209.166,175.066 210.333,176.066 210,178.5C 208.601,177.773 207.101,177.273 205.5,177C 206.056,176.617 206.389,176.117 206.5,175.5 Z"/></g>
<g><path style="opacity:1" fill="#818181" d="M 254.5,182.5 C 254.44,183.043 254.107,183.376 253.5,183.5C 252.482,182.807 251.482,182.141 250.5,181.5C 250.326,179.139 249.993,176.806 249.5,174.5C 250.88,175.706 252.047,175.373 253,173.5C 252.578,176.098 252.578,178.764 253,181.5C 253.383,182.056 253.883,182.389 254.5,182.5 Z"/></g>
<g><path style="opacity:1" fill="#d5d5d5" d="M 213.5,180.5 C 215.379,180.393 215.712,180.893 214.5,182C 213.167,182.667 211.833,182.667 210.5,182C 211.737,181.768 212.737,181.268 213.5,180.5 Z"/></g>
<g><path style="opacity:1" fill="#0a0a0a" d="M 291.5,182.5 C 292.568,183.434 293.901,183.768 295.5,183.5C 295.785,185.288 295.452,186.955 294.5,188.5C 293.466,185.875 292.466,185.875 291.5,188.5C 291.737,189.791 291.404,190.791 290.5,191.5C 289.752,189.265 288.919,189.598 288,192.5C 287.545,195.854 287.045,199.187 286.5,202.5C 285.167,202.5 283.833,202.5 282.5,202.5C 280.073,200.442 277.407,198.609 274.5,197C 279.967,195.278 284.3,192.111 287.5,187.5C 288.625,186.652 288.625,185.652 287.5,184.5C 288.833,183.833 290.167,183.167 291.5,182.5 Z"/></g>
<g><path style="opacity:1" fill="#7f7f7f" d="M 213.5,187.5 C 213.167,187.5 212.833,187.5 212.5,187.5C 212.158,186.662 211.492,186.328 210.5,186.5C 211.797,184.228 213.797,183.395 216.5,184C 214.937,184.759 213.937,185.926 213.5,187.5 Z"/></g>
<g><path style="opacity:1" fill="#eeeeee" d="M 212.5,187.5 C 212.833,187.5 213.167,187.5 213.5,187.5C 215.768,193.229 217.435,199.229 218.5,205.5C 212.661,208.395 206.495,210.395 200,211.5C 199.05,210.978 198.216,210.311 197.5,209.5C 196.833,210.5 196.167,211.5 195.5,212.5C 194.476,211.147 193.143,210.48 191.5,210.5C 190.833,214.5 190.167,214.5 189.5,210.5C 184.912,210.704 181.245,209.037 178.5,205.5C 178.674,197.527 179.174,197.527 180,205.5C 197.923,212.783 208.756,206.783 212.5,187.5 Z"/></g>
<g><path style="opacity:1" fill="#c2c2c2" d="M 247.5,189.5 C 247.5,189.167 247.5,188.833 247.5,188.5C 248.14,186.668 249.14,186.335 250.5,187.5C 249.643,188.425 248.643,189.092 247.5,189.5 Z"/></g>
<g><path style="opacity:1" fill="#212121" d="M 297.5,175.5 C 297.756,173.224 299.09,172.057 301.5,172C 300.552,171.517 299.552,171.351 298.5,171.5C 298.909,168.009 299.909,164.675 301.5,161.5C 300.946,159.39 300.112,157.39 299,155.5C 296.699,162.97 295.366,170.637 295,178.5C 295.383,177.944 295.883,177.611 296.5,177.5C 296.567,181.693 296.734,186.026 297,190.5C 300.613,200.724 307.779,204.891 318.5,203C 321.562,201.939 324.062,200.106 326,197.5C 328.322,191.276 330.155,184.776 331.5,178C 330.549,175.178 330.049,172.345 330,169.5C 333.828,166.585 337.828,163.919 342,161.5C 340.026,170.07 338.026,178.737 336,187.5C 333.848,192.798 332.015,198.131 330.5,203.5C 330.869,201.007 330.203,200.34 328.5,201.5C 329.146,199.844 329.813,198.177 330.5,196.5C 329.409,193.774 329.409,191.441 330.5,189.5C 329.914,189.709 329.414,190.043 329,190.5C 329.226,199.944 324.559,204.944 315,205.5C 304.219,205.13 297.552,199.797 295,189.5C 294.536,190.094 294.369,190.761 294.5,191.5C 293.833,191.167 293.167,190.833 292.5,190.5C 292.672,189.508 292.338,188.842 291.5,188.5C 292.466,185.875 293.466,185.875 294.5,188.5C 295.452,186.955 295.785,185.288 295.5,183.5C 295.38,182.414 294.713,181.747 293.5,181.5C 292.584,181.543 291.917,181.876 291.5,182.5C 290.167,183.167 288.833,183.833 287.5,184.5C 288.323,182.013 289.323,179.679 290.5,177.5C 291.18,175.301 292.18,173.968 293.5,173.5C 293.451,170.646 292.118,169.479 289.5,170C 291.311,171.041 291.645,172.207 290.5,173.5C 289.21,172.065 287.544,171.065 285.5,170.5C 286.722,168.022 288.722,167.022 291.5,167.5C 291.25,164.786 291.083,162.119 291,159.5C 293.432,156.312 296.099,153.312 299,150.5C 303.781,156.295 304.281,162.295 300.5,168.5C 302.978,169.722 303.978,171.722 303.5,174.5C 301.379,174.325 299.379,174.659 297.5,175.5 Z"/></g>
<g><path style="opacity:1" fill="#f1f1f1" d="M 331.5,184.5 C 332.675,184.281 333.675,184.614 334.5,185.5C 332.948,186.798 331.948,186.465 331.5,184.5 Z"/></g>
<g><path style="opacity:1" fill="#b2b2b2" d="M 332.5,182.5 C 333.386,181.224 334.386,181.224 335.5,182.5C 334.575,183.562 333.575,183.562 332.5,182.5 Z"/></g>
<g><path style="opacity:1" fill="#7e7e7e" d="M 295.5,183.5 C 293.901,183.768 292.568,183.434 291.5,182.5C 291.917,181.876 292.584,181.543 293.5,181.5C 294.713,181.747 295.38,182.414 295.5,183.5 Z"/></g>
<g><path style="opacity:1" fill="#a7a7a7" d="M 336.5,166.5 C 337.559,168.07 337.059,169.403 335,170.5C 334.667,173.167 334.333,175.833 334,178.5C 331.511,173.757 332.345,169.757 336.5,166.5 Z"/></g>
<g><path style="opacity:1" fill="#d3d3d3" d="M 297.5,175.5 C 297.672,176.492 297.338,177.158 296.5,177.5C 295.883,177.611 295.383,177.944 295,178.5C 295.366,170.637 296.699,162.97 299,155.5C 300.112,157.39 300.946,159.39 301.5,161.5C 299.909,164.675 298.909,168.009 298.5,171.5C 299.552,171.351 300.552,171.517 301.5,172C 299.09,172.057 297.756,173.224 297.5,175.5 Z"/></g>
<g><path style="opacity:1" fill="#eaeaea" d="M 245.5,190.5 C 242.057,195.103 237.39,197.436 231.5,197.5C 230.833,199.833 230.167,202.167 229.5,204.5C 229.216,201.746 228.549,199.08 227.5,196.5C 226.867,200.651 224.533,203.318 220.5,204.5C 218.416,198.558 216.916,192.558 216,186.5C 224.596,197.231 234.096,198.231 244.5,189.5C 245.107,189.624 245.44,189.957 245.5,190.5 Z"/></g>
<g><path style="opacity:1" fill="#353535" d="M 287.5,184.5 C 288.625,185.652 288.625,186.652 287.5,187.5C 283.423,190.872 278.756,193.205 273.5,194.5C 271.5,193.833 269.5,193.167 267.5,192.5C 271.605,192.766 275.605,192.266 279.5,191C 282.331,188.999 284.997,186.833 287.5,184.5 Z"/></g>
<g><path style="opacity:1" fill="#0e0e0e" d="M 250.5,181.5 C 251.482,182.141 252.482,182.807 253.5,183.5C 254.107,183.376 254.44,183.043 254.5,182.5C 255.209,181.596 256.209,181.263 257.5,181.5C 257.232,183.099 257.566,184.432 258.5,185.5C 260.144,189.498 263.144,191.831 267.5,192.5C 269.5,193.167 271.5,193.833 273.5,194.5C 270.813,194.664 268.146,194.497 265.5,194C 261.742,192.077 258.409,189.577 255.5,186.5C 254.479,187.002 254.312,187.668 255,188.5C 257.752,191.453 260.918,193.786 264.5,195.5C 264.5,204.167 264.5,212.833 264.5,221.5C 262.265,221.205 260.265,221.539 258.5,222.5C 255.428,222.813 252.595,222.146 250,220.5C 244.759,222.799 239.259,224.132 233.5,224.5C 233.022,215.485 232.355,206.485 231.5,197.5C 237.39,197.436 242.057,195.103 245.5,190.5C 246.492,190.672 247.158,190.338 247.5,189.5C 248.643,189.092 249.643,188.425 250.5,187.5C 249.14,186.335 248.14,186.668 247.5,188.5C 246.5,188.5 245.5,188.5 244.5,188.5C 244.263,187.209 244.596,186.209 245.5,185.5C 248.367,185.631 250.033,184.297 250.5,181.5 Z"/></g>
<g><path style="opacity:1" fill="#dbdbdb" d="M 261.5,202.5 C 261.5,203.833 260.833,204.5 259.5,204.5C 257.807,200.628 255.474,197.128 252.5,194C 249.72,193.731 247.554,194.898 246,197.5C 242.374,202.506 241.708,207.839 244,213.5C 244.816,214.823 245.983,215.489 247.5,215.5C 249.167,216.167 250.833,216.833 252.5,217.5C 247.266,219.987 243.099,218.32 240,212.5C 239.17,202.668 242.837,195.002 251,189.5C 255.421,193.088 258.921,197.421 261.5,202.5 Z"/></g>
<g><path style="opacity:1" fill="#595959" d="M 290.5,191.5 C 290.323,195.708 288.99,199.374 286.5,202.5C 287.045,199.187 287.545,195.854 288,192.5C 288.919,189.598 289.752,189.265 290.5,191.5 Z"/></g>
<g><path style="opacity:1" fill="#151515" d="M 271.5,197.5 C 270.067,205.433 269.067,213.433 268.5,221.5C 267.5,221.5 266.5,221.5 265.5,221.5C 265.704,218.482 266.037,215.482 266.5,212.5C 267.194,207.195 267.528,201.862 267.5,196.5C 269.099,196.232 270.432,196.566 271.5,197.5 Z"/></g>
<g><path style="opacity:1" fill="#d3d3d3" d="M 273.5,194.5 C 278.756,193.205 283.423,190.872 287.5,187.5C 284.3,192.111 279.967,195.278 274.5,197C 277.407,198.609 280.073,200.442 282.5,202.5C 281.153,201.972 279.819,201.805 278.5,202C 283.114,205.932 288.447,208.432 294.5,209.5C 294.672,210.492 294.338,211.158 293.5,211.5C 290.476,209.224 287.143,208.891 283.5,210.5C 283.719,209.325 283.386,208.325 282.5,207.5C 278.771,205.977 275.438,203.977 272.5,201.5C 272.33,200.178 272.663,199.011 273.5,198C 272.906,197.536 272.239,197.369 271.5,197.5C 270.432,196.566 269.099,196.232 267.5,196.5C 267.528,201.862 267.194,207.195 266.5,212.5C 265.833,206.833 265.167,201.167 264.5,195.5C 260.918,193.786 257.752,191.453 255,188.5C 254.312,187.668 254.479,187.002 255.5,186.5C 258.409,189.577 261.742,192.077 265.5,194C 268.146,194.497 270.813,194.664 273.5,194.5 Z"/></g>
<g><path style="opacity:1" fill="#2e2e2e" d="M 171.5,173.5 C 174.099,173.549 176.266,174.549 178,176.5C 178.159,179.882 177.659,183.215 176.5,186.5C 176.896,189.435 177.896,192.102 179.5,194.5C 178.571,196.322 179.238,197.655 181.5,198.5C 181.587,202.379 183.254,205.212 186.5,207C 201.082,207.875 209.082,201.042 210.5,186.5C 211.492,186.328 212.158,186.662 212.5,187.5C 208.756,206.783 197.923,212.783 180,205.5C 179.174,197.527 178.674,197.527 178.5,205.5C 177.683,203.169 177.016,200.669 176.5,198C 176.164,196.97 175.497,196.47 174.5,196.5C 173.034,195.653 172.2,194.32 172,192.5C 171.701,185.102 169.868,178.102 166.5,171.5C 166.833,171.167 167.167,170.833 167.5,170.5C 168.901,171.521 170.235,172.521 171.5,173.5 Z"/></g>
<g><path style="opacity:1" fill="#dedede" d="M 174.5,193.5 C 176.337,193.639 176.67,194.306 175.5,195.5C 174.702,195.043 174.369,194.376 174.5,193.5 Z"/></g>
<g><path style="opacity:1" fill="#d8d8d8" d="M 173.5,190.5 C 175.337,190.639 175.67,191.306 174.5,192.5C 173.702,192.043 173.369,191.376 173.5,190.5 Z"/></g>
<g><path style="opacity:1" fill="#e6e6e6" d="M 171.5,173.5 C 172.315,174.837 173.482,175.837 175,176.5C 175.652,179.594 175.318,182.594 174,185.5C 172.305,182.082 170.805,178.582 169.5,175C 169.836,173.97 170.503,173.47 171.5,173.5 Z"/></g>
<g><path style="opacity:1" fill="#b6b6b6" d="M 328.5,201.5 C 326.315,203.762 323.648,205.262 320.5,206C 315.662,206.354 310.995,206.52 306.5,206.5C 310.548,208.481 314.882,209.647 319.5,210C 320.833,210.667 322.167,211.333 323.5,212C 313.183,210.334 302.85,208.334 292.5,206C 295.882,206.266 297.548,204.766 297.5,201.5C 296.111,198.328 295.111,194.995 294.5,191.5C 294.369,190.761 294.536,190.094 295,189.5C 297.552,199.797 304.219,205.13 315,205.5C 324.559,204.944 329.226,199.944 329,190.5C 329.414,190.043 329.914,189.709 330.5,189.5C 329.409,191.441 329.409,193.774 330.5,196.5C 329.813,198.177 329.146,199.844 328.5,201.5 Z"/></g>
<g><path style="opacity:1" fill="#151515" d="M 259.5,204.5 C 260.342,209.821 258.342,213.488 253.5,215.5C 251.5,215.5 249.5,215.5 247.5,215.5C 245.983,215.489 244.816,214.823 244,213.5C 241.708,207.839 242.374,202.506 246,197.5C 247.554,194.898 249.72,193.731 252.5,194C 255.474,197.128 257.807,200.628 259.5,204.5 Z"/></g>
<g><path style="opacity:1" fill="#e5e5e5" d="M 249.5,195.5 C 252.076,195.722 252.91,197.055 252,199.5C 251.125,202.215 249.292,203.548 246.5,203.5C 246.394,200.385 247.394,197.719 249.5,195.5 Z"/></g>
<g><path style="opacity:1" fill="#c6c6c6" d="M 253.5,200.5 C 255.337,200.639 255.67,201.306 254.5,202.5C 253.702,202.043 253.369,201.376 253.5,200.5 Z"/></g>
<g><path style="opacity:1" fill="#bbbbbb" d="M 291.5,188.5 C 292.338,188.842 292.672,189.508 292.5,190.5C 291.5,195.167 290.5,199.833 289.5,204.5C 286.772,204.829 284.438,204.163 282.5,202.5C 283.833,202.5 285.167,202.5 286.5,202.5C 288.99,199.374 290.323,195.708 290.5,191.5C 291.404,190.791 291.737,189.791 291.5,188.5 Z"/></g>
<g><path style="opacity:1" fill="#f1f1f1" d="M 230.5,224.5 C 229.833,225.167 229.167,225.833 228.5,226.5C 225.99,226.927 223.657,227.593 221.5,228.5C 219.194,228.993 216.861,229.326 214.5,229.5C 210.5,230.167 206.5,230.833 202.5,231.5C 201.833,231.5 201.5,231.167 201.5,230.5C 200.994,225.477 200.327,220.477 199.5,215.5C 207.682,214.443 215.015,211.443 221.5,206.5C 223.148,205.19 224.814,203.857 226.5,202.5C 228.478,209.723 229.811,217.056 230.5,224.5 Z"/></g>
<g><path style="opacity:1" fill="#0a0a0a" d="M 272.5,201.5 C 275.438,203.977 278.771,205.977 282.5,207.5C 283.386,208.325 283.719,209.325 283.5,210.5C 281.613,211.768 280.613,213.601 280.5,216C 280.954,217.939 281.621,219.772 282.5,221.5C 282.5,221.833 282.5,222.167 282.5,222.5C 278.033,222.867 273.7,222.367 269.5,221C 270.406,214.39 271.406,207.89 272.5,201.5 Z"/></g>
<g><path style="opacity:1" fill="#151515" d="M 174.5,196.5 C 175.497,196.47 176.164,196.97 176.5,198C 177.016,200.669 177.683,203.169 178.5,205.5C 181.245,209.037 184.912,210.704 189.5,210.5C 190.167,214.5 190.833,214.5 191.5,210.5C 193.143,210.48 194.476,211.147 195.5,212.5C 196.167,211.5 196.833,210.5 197.5,209.5C 198.216,210.311 199.05,210.978 200,211.5C 206.495,210.395 212.661,208.395 218.5,205.5C 219.791,205.263 220.791,205.596 221.5,206.5C 215.015,211.443 207.682,214.443 199.5,215.5C 200.327,220.477 200.994,225.477 201.5,230.5C 199.47,226.518 197.803,222.185 196.5,217.5C 196.547,222.112 196.214,226.779 195.5,231.5C 194.408,227.19 193.408,222.857 192.5,218.5C 191.299,222.492 191.299,226.492 192.5,230.5C 191.024,232.618 189.024,234.118 186.5,235C 188.488,235.18 190.488,235.014 192.5,234.5C 193.492,234.328 194.158,234.662 194.5,235.5C 190.675,236.441 187.009,237.774 183.5,239.5C 182.833,239.167 182.167,238.833 181.5,238.5C 181.087,236.11 180.421,233.777 179.5,231.5C 177.077,230.082 175.411,228.082 174.5,225.5C 175.888,222.47 177.221,219.47 178.5,216.5C 177.258,209.795 175.924,203.129 174.5,196.5 Z"/></g>
<g><path style="opacity:1" fill="#e2e2e2" d="M 246.5,206.5 C 249.308,207.929 252.308,208.595 255.5,208.5C 254.826,213.151 252.159,214.651 247.5,213C 245.316,211.102 244.983,208.936 246.5,206.5 Z"/></g>
<g><path style="opacity:1" fill="#a0a0a0" d="M 261.5,202.5 C 262.638,205.304 262.805,208.304 262,211.5C 261.303,213.584 260.136,215.251 258.5,216.5C 256.726,215.983 255.059,215.65 253.5,215.5C 258.342,213.488 260.342,209.821 259.5,204.5C 260.833,204.5 261.5,203.833 261.5,202.5 Z"/></g>
<g><path style="opacity:1" fill="#161616" d="M 293.5,211.5 C 295.469,217.98 293.136,221.314 286.5,221.5C 286.167,221.5 285.833,221.5 285.5,221.5C 282.371,218.405 281.705,214.739 283.5,210.5C 287.143,208.891 290.476,209.224 293.5,211.5 Z"/></g>
<g><path style="opacity:1" fill="#1a1a1a" d="M 217.5,211.5 C 226.307,211.465 228.64,215.298 224.5,223C 216.329,226.806 212.495,224.306 213,215.5C 214.397,213.93 215.897,212.596 217.5,211.5 Z"/></g>
<g><path style="opacity:1" fill="#939393" d="M 283.5,210.5 C 281.705,214.739 282.371,218.405 285.5,221.5C 284.5,221.5 283.5,221.5 282.5,221.5C 281.621,219.772 280.954,217.939 280.5,216C 280.613,213.601 281.613,211.768 283.5,210.5 Z"/></g>
<g><path style="opacity:1" fill="#090909" d="M 289.5,224.5 C 288.209,224.737 287.209,224.404 286.5,223.5C 293.675,222.862 296.842,218.862 296,211.5C 298.759,211.957 300.593,213.457 301.5,216C 300.75,219.163 300.084,222.33 299.5,225.5C 296.14,225.384 292.807,225.051 289.5,224.5 Z"/></g>
<g><path style="opacity:1" fill="#cbcbcb" d="M 286.5,211.5 C 288.176,212.183 288.843,213.517 288.5,215.5C 284.155,215.702 283.488,214.369 286.5,211.5 Z"/></g>
<g><path style="opacity:1" fill="#646464" d="M 247.5,215.5 C 249.5,215.5 251.5,215.5 253.5,215.5C 255.059,215.65 256.726,215.983 258.5,216.5C 257.152,217.601 255.652,218.601 254,219.5C 253.722,218.584 253.222,217.918 252.5,217.5C 250.833,216.833 249.167,216.167 247.5,215.5 Z"/></g>
<g><path style="opacity:1" fill="#161616" d="M 292.5,190.5 C 293.167,190.833 293.833,191.167 294.5,191.5C 295.111,194.995 296.111,198.328 297.5,201.5C 297.548,204.766 295.882,206.266 292.5,206C 302.85,208.334 313.183,210.334 323.5,212C 322.167,211.333 320.833,210.667 319.5,210C 314.882,209.647 310.548,208.481 306.5,206.5C 310.995,206.52 315.662,206.354 320.5,206C 323.648,205.262 326.315,203.762 328.5,201.5C 330.203,200.34 330.869,201.007 330.5,203.5C 329.375,207.122 328.375,210.789 327.5,214.5C 332.956,219.218 332.79,223.551 327,227.5C 325.594,232.491 325.26,237.491 326,242.5C 324.961,243.71 323.794,244.71 322.5,245.5C 322.167,244.833 321.833,244.167 321.5,243.5C 322.774,242.811 322.774,241.977 321.5,241C 313.832,237.633 305.832,235.466 297.5,234.5C 292.695,233.513 287.695,233.179 282.5,233.5C 284.5,232.833 286.5,232.167 288.5,231.5C 289.5,231.5 290.5,231.5 291.5,231.5C 297.237,232.23 303.07,233.23 309,234.5C 312.065,233.967 312.232,232.967 309.5,231.5C 301.651,229.542 293.651,228.208 285.5,227.5C 283.97,227.64 282.97,228.307 282.5,229.5C 281.833,229.167 281.167,228.833 280.5,228.5C 280.672,227.508 280.338,226.842 279.5,226.5C 278.432,225.566 277.099,225.232 275.5,225.5C 265.494,225.334 255.494,225.5 245.5,226C 242.964,226.186 240.631,226.686 238.5,227.5C 236.833,227.5 235.167,227.5 233.5,227.5C 230.733,227.858 228.067,228.525 225.5,229.5C 224.432,228.566 223.099,228.232 221.5,228.5C 223.657,227.593 225.99,226.927 228.5,226.5C 239.799,225.17 251.132,224.17 262.5,223.5C 268.196,223.447 273.862,223.78 279.5,224.5C 281.764,225.219 284.097,225.552 286.5,225.5C 293.32,226.9 300.32,228.067 307.5,229C 312.003,230.704 316.337,231.871 320.5,232.5C 319.335,231.416 318.002,230.583 316.5,230C 311.134,228.561 305.801,227.061 300.5,225.5C 301.938,222.483 302.938,219.316 303.5,216C 303.836,214.97 304.503,214.47 305.5,214.5C 302.017,212.594 298.35,210.928 294.5,209.5C 288.447,208.432 283.114,205.932 278.5,202C 279.819,201.805 281.153,201.972 282.5,202.5C 284.438,204.163 286.772,204.829 289.5,204.5C 290.5,199.833 291.5,195.167 292.5,190.5 Z"/></g>
<g><path style="opacity:1" fill="#d4d4d4" d="M 299.5,210.5 C 301.288,209.378 303.288,209.211 305.5,210C 310.754,211.647 316.087,212.98 321.5,214C 324.267,214.669 324.767,215.836 323,217.5C 322.055,217.095 321.388,216.428 321,215.5C 320.311,216.357 319.478,217.023 318.5,217.5C 312.395,214.576 306.062,212.243 299.5,210.5 Z"/></g>
<g><path style="opacity:1" fill="#1a1a1a" d="M 299.5,201.5 C 301.471,202.823 303.471,204.156 305.5,205.5C 303.579,206.641 301.579,206.808 299.5,206C 298.587,204.586 298.587,203.086 299.5,201.5 Z"/></g>
<g><path style="opacity:1" fill="#e1e1e1" d="M 216.5,214.5 C 218.176,215.183 218.843,216.517 218.5,218.5C 217.325,218.719 216.325,218.386 215.5,217.5C 216.127,216.583 216.461,215.583 216.5,214.5 Z"/></g>
<g><path style="opacity:1" fill="#d2d2d2" d="M 195.5,213.5 C 196.873,213.343 198.207,213.51 199.5,214C 190.385,215.972 183.218,220.805 178,228.5C 176.084,225.947 176.251,223.447 178.5,221C 183.763,217.444 189.429,214.944 195.5,213.5 Z"/></g>
<g><path style="opacity:1" fill="#a7a7a7" d="M 305.5,214.5 C 312.134,215.983 318.134,218.817 323.5,223C 323.167,223.167 322.833,223.333 322.5,223.5C 318.223,221.192 313.89,219.192 309.5,217.5C 309.326,219.861 308.993,222.194 308.5,224.5C 306.833,224.5 305.167,224.5 303.5,224.5C 304.167,221.167 304.833,217.833 305.5,214.5 Z"/></g>
<g><path style="opacity:1" fill="#929292" d="M 325.5,216.5 C 326.797,217.849 326.63,219.182 325,220.5C 324.805,219.181 324.972,217.847 325.5,216.5 Z"/></g>
<g><path style="opacity:1" fill="#9d9d9d" d="M 221.5,219.5 C 222.376,219.369 223.043,219.702 223.5,220.5C 219.75,223.303 219.084,222.97 221.5,219.5 Z"/></g>
<g><path style="opacity:1" fill="#a6a6a6" d="M 264.5,195.5 C 265.167,201.167 265.833,206.833 266.5,212.5C 266.037,215.482 265.704,218.482 265.5,221.5C 266.5,221.5 267.5,221.5 268.5,221.5C 269.067,213.433 270.067,205.433 271.5,197.5C 272.239,197.369 272.906,197.536 273.5,198C 272.663,199.011 272.33,200.178 272.5,201.5C 271.406,207.89 270.406,214.39 269.5,221C 273.7,222.367 278.033,222.867 282.5,222.5C 281.5,223.167 280.5,223.833 279.5,224.5C 273.862,223.78 268.196,223.447 262.5,223.5C 261.432,222.566 260.099,222.232 258.5,222.5C 260.265,221.539 262.265,221.205 264.5,221.5C 264.5,212.833 264.5,204.167 264.5,195.5 Z"/></g>
<g><path style="opacity:1" fill="#f1f1f1" d="M 282.5,221.5 C 283.5,221.5 284.5,221.5 285.5,221.5C 285.833,221.5 286.167,221.5 286.5,221.5C 286.5,222.167 286.5,222.833 286.5,223.5C 287.209,224.404 288.209,224.737 289.5,224.5C 288.791,225.404 287.791,225.737 286.5,225.5C 284.097,225.552 281.764,225.219 279.5,224.5C 280.5,223.833 281.5,223.167 282.5,222.5C 282.5,222.167 282.5,221.833 282.5,221.5 Z"/></g>
<g><path style="opacity:1" fill="#cacaca" d="M 231.5,197.5 C 232.355,206.485 233.022,215.485 233.5,224.5C 239.259,224.132 244.759,222.799 250,220.5C 252.595,222.146 255.428,222.813 258.5,222.5C 260.099,222.232 261.432,222.566 262.5,223.5C 251.132,224.17 239.799,225.17 228.5,226.5C 229.167,225.833 229.833,225.167 230.5,224.5C 231.376,224.631 232.043,224.298 232.5,223.5C 231.697,217.142 230.697,210.809 229.5,204.5C 230.167,202.167 230.833,199.833 231.5,197.5 Z"/></g>
<g><path style="opacity:1" fill="#c4c4c4" d="M 275.5,225.5 C 272.042,226.039 268.709,227.206 265.5,229C 266.793,229.49 268.127,229.657 269.5,229.5C 270.239,229.369 270.906,229.536 271.5,230C 269.167,230.333 266.833,230.667 264.5,231C 266.167,231.333 267.833,231.667 269.5,232C 263.509,232.499 257.509,232.666 251.5,232.5C 255.064,231.968 258.064,230.302 260.5,227.5C 253.181,226.546 245.848,226.546 238.5,227.5C 240.631,226.686 242.964,226.186 245.5,226C 255.494,225.5 265.494,225.334 275.5,225.5 Z"/></g>
<g><path style="opacity:1" fill="#f8f8f8" d="M 251.5,232.5 C 244.768,232.508 238.101,233.175 231.5,234.5C 229.734,234.566 228.734,233.732 228.5,232C 228.836,230.97 229.503,230.47 230.5,230.5C 232.144,230.19 233.144,229.19 233.5,227.5C 235.167,227.5 236.833,227.5 238.5,227.5C 245.848,226.546 253.181,226.546 260.5,227.5C 258.064,230.302 255.064,231.968 251.5,232.5 Z"/></g>
<g><path style="opacity:1" fill="#646464" d="M 275.5,225.5 C 277.099,225.232 278.432,225.566 279.5,226.5C 278.833,226.5 278.5,226.833 278.5,227.5C 275.813,227.336 273.146,227.503 270.5,228C 269.944,228.383 269.611,228.883 269.5,229.5C 268.127,229.657 266.793,229.49 265.5,229C 268.709,227.206 272.042,226.039 275.5,225.5 Z"/></g>
<g><path style="opacity:1" fill="#e1e1e1" d="M 309.5,231.5 C 309.631,232.239 309.464,232.906 309,233.5C 303.328,231.818 297.494,231.151 291.5,231.5C 290.5,231.5 289.5,231.5 288.5,231.5C 285.918,231.975 283.918,231.308 282.5,229.5C 282.97,228.307 283.97,227.64 285.5,227.5C 293.651,228.208 301.651,229.542 309.5,231.5 Z"/></g>
<g><path style="opacity:1" fill="#a0a0a0" d="M 294.5,209.5 C 298.35,210.928 302.017,212.594 305.5,214.5C 304.503,214.47 303.836,214.97 303.5,216C 302.938,219.316 301.938,222.483 300.5,225.5C 305.801,227.061 311.134,228.561 316.5,230C 318.002,230.583 319.335,231.416 320.5,232.5C 316.337,231.871 312.003,230.704 307.5,229C 300.32,228.067 293.32,226.9 286.5,225.5C 287.791,225.737 288.791,225.404 289.5,224.5C 292.807,225.051 296.14,225.384 299.5,225.5C 300.084,222.33 300.75,219.163 301.5,216C 300.593,213.457 298.759,211.957 296,211.5C 296.842,218.862 293.675,222.862 286.5,223.5C 286.5,222.833 286.5,222.167 286.5,221.5C 293.136,221.314 295.469,217.98 293.5,211.5C 294.338,211.158 294.672,210.492 294.5,209.5 Z"/></g>
<g><path style="opacity:1" fill="#0b0b0b" d="M 221.5,228.5 C 223.099,228.232 224.432,228.566 225.5,229.5C 225.337,231.857 225.503,234.19 226,236.5C 226.388,237.428 227.055,238.095 228,238.5C 245.092,235.984 262.259,235.15 279.5,236C 280.435,233.619 280.768,231.119 280.5,228.5C 281.167,228.833 281.833,229.167 282.5,229.5C 283.918,231.308 285.918,231.975 288.5,231.5C 286.5,232.167 284.5,232.833 282.5,233.5C 284.279,235.344 286.612,236.01 289.5,235.5C 295.843,236.192 302.176,237.025 308.5,238C 313.255,239.185 317.588,241.018 321.5,243.5C 321.833,244.167 322.167,244.833 322.5,245.5C 318.417,247.585 314.083,248.918 309.5,249.5C 307.609,249.172 306.109,248.505 305,247.5C 294.445,249.591 283.945,250.925 273.5,251.5C 272.167,251.5 270.833,251.5 269.5,251.5C 266.523,250.224 263.523,249.224 260.5,248.5C 265.193,248.46 269.859,248.127 274.5,247.5C 281.299,246.984 287.965,245.818 294.5,244C 285.352,244.444 276.352,245.278 267.5,246.5C 260.833,246.5 254.167,246.5 247.5,246.5C 236.167,246.5 224.833,246.5 213.5,246.5C 213.5,248.167 213.5,249.833 213.5,251.5C 213.5,252.5 213.5,253.5 213.5,254.5C 229.833,254.5 246.167,254.5 262.5,254.5C 263.492,254.328 264.158,254.662 264.5,255.5C 246.151,256.654 227.818,256.654 209.5,255.5C 210.5,254.833 211.5,254.167 212.5,253.5C 212.5,251.167 212.5,248.833 212.5,246.5C 211.5,246.5 210.5,246.5 209.5,246.5C 209.5,248.5 209.5,250.5 209.5,252.5C 209.167,252.5 208.833,252.5 208.5,252.5C 208.5,250.5 208.5,248.5 208.5,246.5C 207.5,246.5 206.5,246.5 205.5,246.5C 204.833,246.5 204.167,246.5 203.5,246.5C 202.833,246.5 202.167,246.5 201.5,246.5C 200.167,245.167 198.833,245.167 197.5,246.5C 195.824,247.183 195.157,248.517 195.5,250.5C 194.778,250.918 194.278,251.584 194,252.5C 193.601,252.272 193.435,251.938 193.5,251.5C 193.5,249.833 193.5,248.167 193.5,246.5C 192.5,245.833 191.5,245.167 190.5,244.5C 201.158,240.768 212.158,238.435 223.5,237.5C 224.043,237.44 224.376,237.107 224.5,236.5C 222.922,235.702 221.256,235.202 219.5,235C 221.931,233.908 221.931,232.741 219.5,231.5C 220.978,231.762 222.311,231.429 223.5,230.5C 222.833,230.167 222.167,229.833 221.5,229.5C 219.547,230.156 217.547,230.489 215.5,230.5C 214.833,230.5 214.5,230.167 214.5,229.5C 216.861,229.326 219.194,228.993 221.5,228.5 Z"/></g>
<g><path style="opacity:1" fill="#cacaca" d="M 201.5,230.5 C 201.5,231.167 201.833,231.5 202.5,231.5C 199.167,232.5 195.833,233.5 192.5,234.5C 190.488,235.014 188.488,235.18 186.5,235C 189.024,234.118 191.024,232.618 192.5,230.5C 191.299,226.492 191.299,222.492 192.5,218.5C 193.408,222.857 194.408,227.19 195.5,231.5C 196.214,226.779 196.547,222.112 196.5,217.5C 197.803,222.185 199.47,226.518 201.5,230.5 Z"/></g>
<g><path style="opacity:1" fill="#b8b8b8" d="M 219.5,231.5 C 216.873,232.105 214.207,232.605 211.5,233C 213.833,233.333 216.167,233.667 218.5,234C 216.846,234.608 215.179,235.108 213.5,235.5C 211.781,234.978 210.448,233.978 209.5,232.5C 211.5,231.833 213.5,231.167 215.5,230.5C 217.547,230.489 219.547,230.156 221.5,229.5C 222.167,229.833 222.833,230.167 223.5,230.5C 222.311,231.429 220.978,231.762 219.5,231.5 Z"/></g>
<g><path style="opacity:1" fill="#858585" d="M 291.5,231.5 C 297.494,231.151 303.328,231.818 309,233.5C 309.464,232.906 309.631,232.239 309.5,231.5C 312.232,232.967 312.065,233.967 309,234.5C 303.07,233.23 297.237,232.23 291.5,231.5 Z"/></g>
<g><path style="opacity:1" fill="#e9e9e9" d="M 209.5,232.5 C 210.448,233.978 211.781,234.978 213.5,235.5C 204.477,236.621 195.81,238.954 187.5,242.5C 186.027,243.072 184.693,243.905 183.5,245C 184.094,245.464 184.761,245.631 185.5,245.5C 182.097,249.62 180.264,248.953 180,243.5C 180.69,241.65 181.856,240.316 183.5,239.5C 187.009,237.774 190.675,236.441 194.5,235.5C 199.4,234.025 204.4,233.025 209.5,232.5 Z"/></g>
<g><path style="opacity:1" fill="#8e8e8e" d="M 282.5,233.5 C 287.695,233.179 292.695,233.513 297.5,234.5C 294.615,234.194 291.948,234.527 289.5,235.5C 286.612,236.01 284.279,235.344 282.5,233.5 Z"/></g>
<g><path style="opacity:1" fill="#373737" d="M 214.5,229.5 C 214.5,230.167 214.833,230.5 215.5,230.5C 213.5,231.167 211.5,231.833 209.5,232.5C 204.4,233.025 199.4,234.025 194.5,235.5C 194.158,234.662 193.492,234.328 192.5,234.5C 195.833,233.5 199.167,232.5 202.5,231.5C 206.5,230.833 210.5,230.167 214.5,229.5 Z"/></g>
<g><path style="opacity:1" fill="#b3b3b3" d="M 313.5,233.5 C 315.337,233.639 315.67,234.306 314.5,235.5C 313.702,235.043 313.369,234.376 313.5,233.5 Z"/></g>
<g><path style="opacity:1" fill="#c2c2c2" d="M 279.5,226.5 C 280.338,226.842 280.672,227.508 280.5,228.5C 280.768,231.119 280.435,233.619 279.5,236C 262.259,235.15 245.092,235.984 228,238.5C 227.055,238.095 226.388,237.428 226,236.5C 225.503,234.19 225.337,231.857 225.5,229.5C 228.067,228.525 230.733,227.858 233.5,227.5C 233.144,229.19 232.144,230.19 230.5,230.5C 229.458,229.209 228.292,229.209 227,230.5C 227.135,232.425 227.302,234.425 227.5,236.5C 244.449,234.806 261.449,234.139 278.5,234.5C 278.5,232.167 278.5,229.833 278.5,227.5C 278.5,226.833 278.833,226.5 279.5,226.5 Z"/></g>
<g><path style="opacity:1" fill="#1b1b1b" d="M 278.5,227.5 C 278.5,229.833 278.5,232.167 278.5,234.5C 261.449,234.139 244.449,234.806 227.5,236.5C 227.302,234.425 227.135,232.425 227,230.5C 228.292,229.209 229.458,229.209 230.5,230.5C 229.503,230.47 228.836,230.97 228.5,232C 228.734,233.732 229.734,234.566 231.5,234.5C 238.101,233.175 244.768,232.508 251.5,232.5C 257.509,232.666 263.509,232.499 269.5,232C 267.833,231.667 266.167,231.333 264.5,231C 266.833,230.667 269.167,230.333 271.5,230C 270.906,229.536 270.239,229.369 269.5,229.5C 269.611,228.883 269.944,228.383 270.5,228C 273.146,227.503 275.813,227.336 278.5,227.5 Z"/></g>
<g><path style="opacity:1" fill="#333333" d="M 219.5,231.5 C 221.931,232.741 221.931,233.908 219.5,235C 221.256,235.202 222.922,235.702 224.5,236.5C 224.376,237.107 224.043,237.44 223.5,237.5C 211.569,236.767 199.902,238.767 188.5,243.5C 187.893,243.376 187.56,243.043 187.5,242.5C 195.81,238.954 204.477,236.621 213.5,235.5C 215.179,235.108 216.846,234.608 218.5,234C 216.167,233.667 213.833,233.333 211.5,233C 214.207,232.605 216.873,232.105 219.5,231.5 Z"/></g>
<g><path style="opacity:1" fill="#aeaeae" d="M 289.5,235.5 C 291.948,234.527 294.615,234.194 297.5,234.5C 305.832,235.466 313.832,237.633 321.5,241C 322.774,241.977 322.774,242.811 321.5,243.5C 317.588,241.018 313.255,239.185 308.5,238C 302.176,237.025 295.843,236.192 289.5,235.5 Z"/></g>
<g><path style="opacity:1" fill="#b5b5b5" d="M 223.5,237.5 C 212.158,238.435 201.158,240.768 190.5,244.5C 188.883,245.038 187.216,245.371 185.5,245.5C 184.761,245.631 184.094,245.464 183.5,245C 184.693,243.905 186.027,243.072 187.5,242.5C 187.56,243.043 187.893,243.376 188.5,243.5C 199.902,238.767 211.569,236.767 223.5,237.5 Z"/></g>
<g><path style="opacity:1" fill="#2a2a2a" d="M 181.5,238.5 C 182.167,238.833 182.833,239.167 183.5,239.5C 181.856,240.316 180.69,241.65 180,243.5C 180.264,248.953 182.097,249.62 185.5,245.5C 187.216,245.371 188.883,245.038 190.5,244.5C 191.5,245.167 192.5,245.833 193.5,246.5C 192.351,246.791 191.684,247.624 191.5,249C 191.684,250.376 192.351,251.209 193.5,251.5C 193.435,251.938 193.601,252.272 194,252.5C 194.278,251.584 194.778,250.918 195.5,250.5C 195.393,252.379 195.893,252.712 197,251.5C 197.494,249.866 197.66,248.199 197.5,246.5C 198.833,245.167 200.167,245.167 201.5,246.5C 202.167,254.5 202.833,254.5 203.5,246.5C 204.167,246.5 204.833,246.5 205.5,246.5C 205.682,248.591 205.348,250.591 204.5,252.5C 205.808,253.626 207.142,253.626 208.5,252.5C 208.833,252.5 209.167,252.5 209.5,252.5C 210.209,253.404 211.209,253.737 212.5,253.5C 211.5,254.167 210.5,254.833 209.5,255.5C 199.557,255.009 189.891,253.176 180.5,250C 177.616,245.826 177.949,241.993 181.5,238.5 Z"/></g>
<g><path style="opacity:1" fill="#505050" d="M 247.5,246.5 C 236.679,247.495 225.679,247.828 214.5,247.5C 214.768,249.099 214.434,250.432 213.5,251.5C 213.5,249.833 213.5,248.167 213.5,246.5C 224.833,246.5 236.167,246.5 247.5,246.5 Z"/></g>
<g><path style="opacity:1" fill="#9f9f9f" d="M 274.5,247.5 C 272.393,246.532 270.059,246.198 267.5,246.5C 276.352,245.278 285.352,244.444 294.5,244C 287.965,245.818 281.299,246.984 274.5,247.5 Z"/></g>
<g><path style="opacity:1" fill="#b8b8b8" d="M 186.5,246.5 C 187.586,246.62 188.253,247.287 188.5,248.5C 188.167,249.167 187.833,249.833 187.5,250.5C 186.571,249.311 186.238,247.978 186.5,246.5 Z"/></g>
<g><path style="opacity:1" fill="#e5e5e5" d="M 205.5,246.5 C 206.5,246.5 207.5,246.5 208.5,246.5C 208.5,248.5 208.5,250.5 208.5,252.5C 207.142,253.626 205.808,253.626 204.5,252.5C 205.348,250.591 205.682,248.591 205.5,246.5 Z"/></g>
<g><path style="opacity:1" fill="#e7e7e7" d="M 212.5,253.5 C 211.209,253.737 210.209,253.404 209.5,252.5C 209.5,250.5 209.5,248.5 209.5,246.5C 210.5,246.5 211.5,246.5 212.5,246.5C 212.5,248.833 212.5,251.167 212.5,253.5 Z"/></g>
<g><path style="opacity:1" fill="#eaeaea" d="M 247.5,246.5 C 254.167,246.5 260.833,246.5 267.5,246.5C 270.059,246.198 272.393,246.532 274.5,247.5C 269.859,248.127 265.193,248.46 260.5,248.5C 257.278,248.108 254.278,248.608 251.5,250C 256.167,250.333 260.833,250.667 265.5,251C 259.378,251.728 259.211,252.228 265,252.5C 266.707,252.492 268.207,252.158 269.5,251.5C 270.833,251.5 272.167,251.5 273.5,251.5C 276.713,251.19 279.713,251.523 282.5,252.5C 275.637,252.638 268.97,253.304 262.5,254.5C 246.167,254.5 229.833,254.5 213.5,254.5C 213.5,253.5 213.5,252.5 213.5,251.5C 214.434,250.432 214.768,249.099 214.5,247.5C 225.679,247.828 236.679,247.495 247.5,246.5 Z"/></g>
<g><path style="opacity:1" fill="#a6a6a6" d="M 193.5,246.5 C 193.5,248.167 193.5,249.833 193.5,251.5C 192.351,251.209 191.684,250.376 191.5,249C 191.684,247.624 192.351,246.791 193.5,246.5 Z"/></g>
<g><path style="opacity:1" fill="#c4c4c4" d="M 197.5,246.5 C 197.66,248.199 197.494,249.866 197,251.5C 195.893,252.712 195.393,252.379 195.5,250.5C 195.157,248.517 195.824,247.183 197.5,246.5 Z"/></g>
<g><path style="opacity:1" fill="#505050" d="M 260.5,248.5 C 263.523,249.224 266.523,250.224 269.5,251.5C 268.207,252.158 266.707,252.492 265,252.5C 259.211,252.228 259.378,251.728 265.5,251C 260.833,250.667 256.167,250.333 251.5,250C 254.278,248.608 257.278,248.108 260.5,248.5 Z"/></g>
<g><path style="opacity:1" fill="#787878" d="M 309.5,249.5 C 306.689,250.475 303.689,251.142 300.5,251.5C 294.612,250.774 288.612,251.108 282.5,252.5C 279.713,251.523 276.713,251.19 273.5,251.5C 283.945,250.925 294.445,249.591 305,247.5C 306.109,248.505 307.609,249.172 309.5,249.5 Z"/></g>
<g><path style="opacity:1" fill="#dbdbdb" d="M 201.5,246.5 C 202.167,246.5 202.833,246.5 203.5,246.5C 202.833,254.5 202.167,254.5 201.5,246.5 Z"/></g>
<g><path style="opacity:1" fill="#3a3a3a" d="M 300.5,251.5 C 288.531,253.097 276.531,254.43 264.5,255.5C 264.158,254.662 263.492,254.328 262.5,254.5C 268.97,253.304 275.637,252.638 282.5,252.5C 288.612,251.108 294.612,250.774 300.5,251.5 Z"/></g>
<g><path style="opacity:1" fill="#525252" d="M 335.5,266.5 C 330.156,266.334 324.823,266.501 319.5,267C 320.056,267.383 320.389,267.883 320.5,268.5C 318.952,268.179 318.285,267.179 318.5,265.5C 324.358,265.178 330.025,265.511 335.5,266.5 Z"/></g>
<g><path style="opacity:1" fill="#0e0e0e" d="M 335.5,266.5 C 336.332,284.662 336.832,302.995 337,321.5C 338.397,323.07 339.897,324.404 341.5,325.5C 334.352,326.492 327.019,326.825 319.5,326.5C 318.475,326.103 318.308,325.437 319,324.5C 321,323.833 322.333,322.5 323,320.5C 323.667,303.833 323.667,287.167 323,270.5C 322.292,269.619 321.458,268.953 320.5,268.5C 320.389,267.883 320.056,267.383 319.5,267C 324.823,266.501 330.156,266.334 335.5,266.5 Z"/></g>
<g><path style="opacity:1" fill="#0a0a0a" d="M 47.5,266.5 C 49.8333,266.5 52.1667,266.5 54.5,266.5C 53.8051,268.978 52.3051,270.978 50,272.5C 49.1834,275.964 49.5167,279.298 51,282.5C 57.3946,287.948 64.2279,292.781 71.5,297C 75.449,300.274 78.6157,304.107 81,308.5C 82.4654,320.21 77.2987,326.877 65.5,328.5C 64.5,328.167 63.8333,327.5 63.5,326.5C 68.6323,322.47 69.7989,317.47 67,311.5C 59.4435,305.611 51.6102,300.111 43.5,295C 33.076,283.609 34.4093,274.109 47.5,266.5 Z"/></g>
<g><path style="opacity:1" fill="#141414" d="M 78.5,271.5 C 78.8182,276.032 78.4849,280.366 77.5,284.5C 74.0453,276.043 68.0453,270.376 59.5,267.5C 63.5053,266.473 67.5053,266.639 71.5,268C 74.2813,268.522 76.6146,269.689 78.5,271.5 Z"/></g>
<g><path style="opacity:1" fill="#0d0d0d" d="M 353.5,315.5 C 353.59,312.848 352.924,310.515 351.5,308.5C 351.291,307.078 350.791,305.745 350,304.5C 347.552,302.369 345.052,300.369 342.5,298.5C 352.551,295.074 356.385,288.074 354,277.5C 353.697,275.112 352.863,272.945 351.5,271C 348.534,269.734 345.534,268.567 342.5,267.5C 353.687,264.28 362.187,267.613 368,277.5C 369.887,287.733 366.053,294.733 356.5,298.5C 358.817,300.316 360.984,302.316 363,304.5C 365.777,309.62 368.11,314.953 370,320.5C 372.121,323.119 374.621,325.119 377.5,326.5C 371.443,327.862 365.443,327.696 359.5,326C 356.659,322.976 354.659,319.476 353.5,315.5 Z"/></g>
<g><path style="opacity:1" fill="#0f0f0f" d="M 102.5,276.5 C 102.5,280.167 102.5,283.833 102.5,287.5C 105.5,287.5 108.5,287.5 111.5,287.5C 111.804,288.15 112.137,288.817 112.5,289.5C 109.232,290.487 105.898,290.82 102.5,290.5C 102.334,299.839 102.5,309.173 103,318.5C 106.059,322.137 109.559,322.47 113.5,319.5C 113.833,320 114.167,320.5 114.5,321C 110.835,327.963 105.168,330.297 97.5,328C 94.8941,326.062 93.0608,323.562 92,320.5C 91.5002,310.506 91.3335,300.506 91.5,290.5C 89.6536,290.778 88.3202,290.111 87.5,288.5C 88.6888,287.571 90.0222,287.238 91.5,287.5C 91.5,283.5 91.5,279.5 91.5,275.5C 94.0379,275.493 96.5379,275.159 99,274.5C 100.699,274.387 101.866,275.053 102.5,276.5 Z"/></g>
<g><path style="opacity:1" fill="#5b5b5b" d="M 78.5,271.5 C 79.8124,276.015 79.8124,280.682 78.5,285.5C 77.8933,285.376 77.56,285.043 77.5,284.5C 78.4849,280.366 78.8182,276.032 78.5,271.5 Z"/></g>
<g><path style="opacity:1" fill="#b8b8b8" d="M 102.5,276.5 C 103.479,279.625 103.813,282.958 103.5,286.5C 106.385,286.194 109.052,286.527 111.5,287.5C 108.5,287.5 105.5,287.5 102.5,287.5C 102.5,283.833 102.5,280.167 102.5,276.5 Z"/></g>
<g><path style="opacity:1" fill="#777777" d="M 283.5,287.5 C 280.098,287.342 276.764,287.676 273.5,288.5C 273.611,287.883 273.944,287.383 274.5,287C 277.696,286.195 280.696,286.362 283.5,287.5 Z"/></g>
<g><path style="opacity:1" fill="#0b0b0b" d="M 393.5,303.5 C 398.65,304.651 403.984,304.817 409.5,304C 410.658,300.639 410.325,297.473 408.5,294.5C 407.949,291.733 406.616,289.4 404.5,287.5C 413.293,287.101 418.46,291.435 420,300.5C 420.789,302.712 420.622,304.712 419.5,306.5C 410.833,306.5 402.167,306.5 393.5,306.5C 393.216,308.415 393.549,310.081 394.5,311.5C 397.045,318.444 402.045,321.278 409.5,320C 412.297,318.767 414.963,317.267 417.5,315.5C 418.164,319.668 416.497,322.834 412.5,325C 397.63,331.062 387.63,326.562 382.5,311.5C 382.437,306.797 382.771,302.13 383.5,297.5C 386.645,290.694 391.978,287.028 399.5,286.5C 399.649,287.552 399.483,288.552 399,289.5C 394.664,293.173 392.831,297.84 393.5,303.5 Z"/></g>
<g><path style="opacity:1" fill="#111111" d="M 283.5,287.5 C 286.845,288.68 289.011,291.013 290,294.5C 290.333,304.167 290.667,313.833 291,323.5C 292.883,324.653 293.716,326.319 293.5,328.5C 287.833,328.5 282.167,328.5 276.5,328.5C 276.575,325.593 277.409,322.927 279,320.5C 279.667,312.833 279.667,305.167 279,297.5C 276.426,294.973 273.26,293.806 269.5,294C 268.593,290.867 269.926,289.034 273.5,288.5C 276.764,287.676 280.098,287.342 283.5,287.5 Z"/></g>
<g><path style="opacity:1" fill="#0c0c0c" d="M 425.5,286.5 C 431.833,286.5 438.167,286.5 444.5,286.5C 444.523,288.6 443.856,290.433 442.5,292C 446.521,299.57 449.854,307.404 452.5,315.5C 451.488,319.705 449.988,323.705 448,327.5C 441.744,315.32 435.744,302.987 430,290.5C 428.933,289.809 427.766,289.309 426.5,289C 425.748,288.329 425.414,287.496 425.5,286.5 Z"/></g>
<g><path style="opacity:1" fill="#191919" d="M 453.5,286.5 C 458.5,286.5 463.5,286.5 468.5,286.5C 464.478,290.89 461.145,295.89 458.5,301.5C 457.979,298.222 457.813,294.889 458,291.5C 456.89,289.963 455.39,289.297 453.5,289.5C 453.5,288.5 453.5,287.5 453.5,286.5 Z"/></g>
<g><path style="opacity:1" fill="#0e0e0e" d="M 156.5,302.5 C 156.5,304.167 156.5,305.833 156.5,307.5C 147.833,307.5 139.167,307.5 130.5,307.5C 130.216,309.415 130.549,311.081 131.5,312.5C 134.573,319.535 139.907,322.035 147.5,320C 156.718,315.415 157.718,317.082 150.5,325C 136.077,332.541 125.91,328.707 120,313.5C 117.029,303.116 119.862,294.949 128.5,289C 131.014,287.748 133.68,287.248 136.5,287.5C 136.649,288.552 136.483,289.552 136,290.5C 131.915,294.249 130.082,298.916 130.5,304.5C 135.833,304.5 141.167,304.5 146.5,304.5C 147.3,298.103 145.3,292.77 140.5,288.5C 150.334,287.651 155.667,292.317 156.5,302.5 Z"/></g>
<g><path style="opacity:1" fill="#0f0f0f" d="M 160.5,287.5 C 167.09,287.189 173.59,287.522 180,288.5C 178.906,290.594 178.572,292.927 179,295.5C 182.567,302.135 185.734,308.968 188.5,316C 187.511,320.476 185.844,324.642 183.5,328.5C 177.41,316.653 171.577,304.653 166,292.5C 164.581,291.54 163.081,290.707 161.5,290C 160.748,289.329 160.414,288.496 160.5,287.5 Z"/></g>
<g><path style="opacity:1" fill="#171717" d="M 188.5,287.5 C 193.833,287.5 199.167,287.5 204.5,287.5C 204.5,288.5 204.5,289.5 204.5,290.5C 203.178,290.33 202.011,290.663 201,291.5C 198.487,295.204 195.987,298.87 193.5,302.5C 193.552,298.905 193.218,295.239 192.5,291.5C 190.192,291.035 188.858,289.701 188.5,287.5 Z"/></g>
<g><path style="opacity:1" fill="#0f0f0f" d="M 244.5,297.5 C 245.051,300.807 245.384,304.14 245.5,307.5C 236.833,307.5 228.167,307.5 219.5,307.5C 219.232,309.099 219.566,310.432 220.5,311.5C 222.713,318.947 227.713,321.78 235.5,320C 238.562,318.795 241.562,317.628 244.5,316.5C 243.119,322.384 239.453,326.217 233.5,328C 217.866,329.549 209.199,322.383 207.5,306.5C 207.703,298.815 211.036,292.982 217.5,289C 220.014,287.748 222.68,287.248 225.5,287.5C 225.649,288.552 225.483,289.552 225,290.5C 220.664,294.173 218.831,298.84 219.5,304.5C 224.833,304.5 230.167,304.5 235.5,304.5C 236.232,298.063 234.232,292.73 229.5,288.5C 234.397,287.298 238.564,288.631 242,292.5C 243.094,294.078 243.928,295.745 244.5,297.5 Z"/></g>
<g><path style="opacity:1" fill="#111111" d="M 258.5,287.5 C 260.833,287.5 263.167,287.5 265.5,287.5C 265.333,299.171 265.5,310.838 266,322.5C 267.559,324.217 268.392,326.217 268.5,328.5C 262.907,328.807 257.407,328.473 252,327.5C 251.582,325.212 252.249,323.212 254,321.5C 254.667,312.833 254.667,304.167 254,295.5C 251.735,294.084 250.569,292.084 250.5,289.5C 253.428,289.435 256.095,288.768 258.5,287.5 Z"/></g>
<g><path style="opacity:1" fill="#6d6d6d" d="M 244.5,297.5 C 246.531,300.708 246.865,304.041 245.5,307.5C 245.384,304.14 245.051,300.807 244.5,297.5 Z"/></g>
<g><path style="opacity:1" fill="#898989" d="M 383.5,297.5 C 382.771,302.13 382.437,306.797 382.5,311.5C 381.839,309.866 381.506,308.033 381.5,306C 381.36,302.85 382.027,300.017 383.5,297.5 Z"/></g>
<g><path style="opacity:1" fill="#989898" d="M 408.5,294.5 C 410.325,297.473 410.658,300.639 409.5,304C 403.984,304.817 398.65,304.651 393.5,303.5C 398.5,303.5 403.5,303.5 408.5,303.5C 408.5,300.5 408.5,297.5 408.5,294.5 Z"/></g>
<g><path style="opacity:1" fill="#b0b0b0" d="M 419.5,306.5 C 411.35,307.493 403.017,307.826 394.5,307.5C 394.5,308.833 394.5,310.167 394.5,311.5C 393.549,310.081 393.216,308.415 393.5,306.5C 402.167,306.5 410.833,306.5 419.5,306.5 Z"/></g>
<g><path style="opacity:1" fill="#ababab" d="M 156.5,302.5 C 157.461,304.265 157.795,306.265 157.5,308.5C 148.833,308.5 140.167,308.5 131.5,308.5C 131.5,309.833 131.5,311.167 131.5,312.5C 130.549,311.081 130.216,309.415 130.5,307.5C 139.167,307.5 147.833,307.5 156.5,307.5C 156.5,305.833 156.5,304.167 156.5,302.5 Z"/></g>
<g><path style="opacity:1" fill="#b1b1b1" d="M 245.5,307.5 C 237.35,308.493 229.017,308.826 220.5,308.5C 220.5,309.5 220.5,310.5 220.5,311.5C 219.566,310.432 219.232,309.099 219.5,307.5C 228.167,307.5 236.833,307.5 245.5,307.5 Z"/></g>
<g><path style="opacity:1" fill="#161616" d="M 38.5,306.5 C 41.7192,316.383 48.0525,323.383 57.5,327.5C 53.1354,328.702 48.8021,328.535 44.5,327C 43.0506,325.883 41.3839,325.216 39.5,325C 38.1772,324.184 37.5106,323.017 37.5,321.5C 37.1795,316.305 37.5128,311.305 38.5,306.5 Z"/></g>
<g><path style="opacity:1" fill="#919191" d="M 351.5,308.5 C 352.924,310.515 353.59,312.848 353.5,315.5C 352.076,313.485 351.41,311.152 351.5,308.5 Z"/></g>
<g><path style="opacity:1" fill="#9d9d9d" d="M 38.5,306.5 C 37.5128,311.305 37.1795,316.305 37.5,321.5C 36.1853,316.32 36.1853,310.986 37.5,305.5C 38.1067,305.624 38.44,305.957 38.5,306.5 Z"/></g>
<g><path style="opacity:1" fill="#494949" d="M 341.5,325.5 C 342.043,325.56 342.376,325.893 342.5,326.5C 334.677,327.82 327.01,327.82 319.5,326.5C 327.019,326.825 334.352,326.492 341.5,325.5 Z"/></g>
<g><path style="opacity:1" fill="#101010" d="M 430.5,335.5 C 432.527,335.338 434.527,335.505 436.5,336C 438.8,340.196 441.133,340.362 443.5,336.5C 444.029,340.232 442.696,343.399 439.5,346C 432.838,349.397 429.172,347.397 428.5,340C 428.519,338.167 429.185,336.667 430.5,335.5 Z"/></g>
</svg>
