<?xml version="1.0" standalone="no"?>
<!DOCTYPE svg PUBLIC "-//W3C//DTD SVG 20010904//EN"
 "http://www.w3.org/TR/2001/REC-SVG-20010904/DTD/svg10.dtd">
<svg version="1.0" xmlns="http://www.w3.org/2000/svg"
 width="500.000000pt" height="500.000000pt" viewBox="0 0 500.000000 500.000000"
 preserveAspectRatio="xMidYMid meet">
<metadata>
Created by potrace 1.14, written by Peter Selinger 2001-2017
</metadata>
<g transform="translate(0.000000,500.000000) scale(0.100000,-0.100000)"
fill="#000000" stroke="none">
<path d="M2473 3700 c-15 -23 -47 -67 -70 -98 -44 -59 -50 -80 -33 -110 43
-79 46 -112 11 -112 -36 0 -81 -62 -81 -112 0 -15 4 -18 18 -13 29 12 46 12
75 3 34 -12 35 -31 3 -46 -28 -13 -51 -44 -60 -85 -6 -25 -4 -27 11 -19 46 24
102 -16 103 -74 0 -40 -16 -55 -46 -44 -22 9 -24 7 -24 -23 0 -18 4 -48 10
-67 9 -31 7 -36 -18 -57 -50 -43 -107 -71 -157 -80 -44 -8 -65 -6 -136 11 -26
7 -101 55 -135 88 -24 22 -31 37 -29 60 1 17 -9 52 -24 82 -32 61 -25 90 26
108 39 14 34 24 -22 48 l-43 19 13 38 c21 58 19 69 -32 115 -25 24 -63 60 -84
81 l-39 39 -11 -29 c-6 -15 -12 -35 -14 -43 -2 -8 -15 -48 -28 -87 l-24 -73
48 -45 c27 -25 49 -50 49 -54 0 -5 -11 -12 -25 -15 -32 -8 -48 -39 -40 -77 7
-29 8 -29 25 -14 10 9 29 15 42 13 21 -3 23 -7 23 -68 0 -36 3 -68 8 -71 16
-12 15 -73 -3 -125 -57 -165 -209 -274 -365 -262 -45 4 -73 13 -103 33 -42 28
-45 34 -43 90 1 24 -5 35 -32 52 -28 20 -32 27 -29 57 2 18 -1 37 -7 40 -6 4
-11 17 -11 29 0 13 -7 32 -15 45 -15 20 -14 28 5 89 30 97 31 119 6 141 -26
24 -96 66 -96 58 0 -3 -25 8 -56 25 -47 25 -56 27 -51 12 3 -10 24 -71 46
-136 22 -65 42 -132 45 -149 2 -16 7 -32 10 -35 2 -3 0 -16 -5 -30 -6 -18 -5
-30 5 -45 8 -11 12 -27 9 -35 -3 -8 4 -24 15 -36 11 -12 23 -35 26 -52 3 -16
15 -73 26 -125 12 -52 23 -106 26 -120 3 -14 7 -33 10 -42 16 -54 14 -68 -21
-113 -19 -26 -36 -55 -36 -66 -1 -10 -2 -25 -3 -31 -4 -23 25 -69 49 -80 14
-6 25 -15 25 -20 0 -4 6 -8 14 -8 9 0 16 -17 21 -47 3 -27 8 -60 11 -75 2 -16
0 -28 -6 -28 -18 0 -50 -64 -50 -101 0 -57 29 -85 121 -114 120 -38 282 -65
489 -81 181 -15 941 -7 1135 11 103 9 171 16 200 20 107 15 204 28 225 30 30
4 73 11 165 30 39 8 81 16 95 19 165 31 300 88 320 135 10 24 9 35 -4 63 -15
31 -15 41 2 125 16 78 23 94 52 120 28 25 33 36 32 69 -3 68 -5 75 -34 106
l-28 30 31 107 c17 58 33 113 35 121 2 8 17 62 34 120 17 58 32 114 35 124 2
11 9 23 15 26 11 7 24 49 36 120 8 48 12 65 14 65 1 0 3 7 5 15 2 8 22 78 44
155 23 77 41 143 41 147 0 6 -148 -91 -222 -145 -30 -23 -30 -23 -2 -130 15
-55 16 -71 6 -87 -7 -11 -12 -28 -12 -39 0 -11 -5 -21 -11 -23 -14 -5 -18 -39
-7 -60 5 -10 5 -18 1 -18 -5 0 -23 -14 -42 -30 -23 -22 -31 -36 -26 -48 20
-52 15 -81 -21 -121 -55 -62 -114 -86 -209 -86 -68 0 -89 4 -137 28 -102 50
-177 158 -193 280 -4 28 -2 48 4 52 6 3 11 17 11 30 0 13 5 27 10 30 7 4 6 13
-1 27 -9 16 -7 28 7 53 24 45 52 57 88 38 l27 -14 -3 38 c-3 32 -8 40 -35 52
-18 8 -33 18 -33 22 0 4 16 30 36 59 l36 52 -22 62 c-11 33 -22 66 -24 71 -18
74 -31 115 -37 115 -3 0 -24 -21 -44 -47 -21 -27 -43 -52 -49 -58 -6 -5 -26
-29 -44 -52 -28 -36 -32 -47 -26 -78 3 -19 10 -38 15 -41 17 -10 10 -54 -8
-55 -34 -1 -54 -7 -79 -23 -33 -22 -31 -46 4 -46 58 -1 101 -73 65 -112 -9
-10 -13 -21 -10 -25 4 -3 0 -14 -8 -23 -8 -9 -16 -25 -18 -36 -6 -44 -107
-135 -193 -176 -75 -36 -189 -35 -259 1 -67 35 -118 103 -109 145 3 17 7 36 8
41 0 6 -12 9 -28 7 -33 -4 -66 22 -66 51 0 28 29 84 47 91 9 4 22 1 30 -6 21
-17 33 8 21 43 -11 31 -52 69 -74 69 -8 0 -14 6 -14 14 0 19 50 29 83 17 24
-9 27 -8 27 12 0 37 -36 84 -74 98 -20 7 -36 17 -36 22 0 4 13 27 28 50 38 56
44 74 29 89 -7 7 -35 45 -62 83 -26 39 -56 80 -66 93 l-17 23 -29 -41z"/>
</g>
</svg>
